{
    "asset" : {
        "generator" : "Khronos glTF Blender I/O v1.8.19",
        "version" : "2.0"
    },
    "scene" : 0,
    "scenes" : [
        {
            "name" : "Scene",
            "nodes" : [
                0,
                1
            ]
        }
    ],
    "nodes" : [
        {
            "mesh" : 0,
            "name" : "Plane.002",
            "rotation" : [
                0,
                0.7071067690849304,
                0,
                0.7071068286895752
            ],
            "scale" : [
                2,
                2,
                0.7128000855445862
            ],
            "translation" : [
                0,
                1,
                0
            ]
        },
        {
            "mesh" : 1,
            "name" : "Plane.001",
            "rotation" : [
                0,
                0.7071067690849304,
                0,
                0.7071068286895752
            ],
            "scale" : [
                2,
                2,
                0.7128000855445862
            ],
            "translation" : [
                -0.0186263807117939,
                0.02822544053196907,
                0.08312791585922241
            ]
        }
    ],
    "materials" : [
        {
            "doubleSided" : true,
            "name" : "Material.001",
            "pbrMetallicRoughness" : {
                "baseColorTexture" : {
                    "index" : 0
                },
                "metallicFactor" : 0,
                "roughnessFactor" : 0.5
            }
        }
    ],
    "meshes" : [
        {
            "name" : "Plane.003",
            "primitives" : [
                {
                    "attributes" : {
                        "POSITION" : 0,
                        "NORMAL" : 1,
                        "TEXCOORD_0" : 2
                    },
                    "indices" : 3,
                    "material" : 0
                }
            ]
        },
        {
            "name" : "Plane.012",
            "primitives" : [
                {
                    "attributes" : {
                        "POSITION" : 4,
                        "NORMAL" : 5
                    },
                    "indices" : 6,
                    "material" : 0
                }
            ]
        }
    ],
    "textures" : [
        {
            "sampler" : 0,
            "source" : 0
        }
    ],
    "images" : [
        {
            "bufferView" : 4,
            "mimeType" : "image/png",
            "name" : "name"
        }
    ],
    "accessors" : [
        {
            "bufferView" : 0,
            "componentType" : 5126,
            "count" : 2182,
            "max" : [
                0.9815651178359985,
                0.028226548805832863,
                0.7667865753173828
            ],
            "min" : [
                -0.9820978045463562,
                0,
                -0.7657389640808105
            ],
            "type" : "VEC3"
        },
        {
            "bufferView" : 1,
            "componentType" : 5126,
            "count" : 2182,
            "type" : "VEC3"
        },
        {
            "bufferView" : 2,
            "componentType" : 5126,
            "count" : 2182,
            "type" : "VEC2"
        },
        {
            "bufferView" : 3,
            "componentType" : 5123,
            "count" : 2904,
            "type" : "SCALAR"
        },
        {
            "bufferView" : 5,
            "componentType" : 5126,
            "count" : 10577,
            "max" : [
                1.0232993364334106,
                0.014113804325461388,
                0.5517770051956177
            ],
            "min" : [
                -0.9412884712219238,
                -0.01411355473101139,
                -0.9807493686676025
            ],
            "type" : "VEC3"
        },
        {
            "bufferView" : 6,
            "componentType" : 5126,
            "count" : 10577,
            "type" : "VEC3"
        },
        {
            "bufferView" : 7,
            "componentType" : 5123,
            "count" : 12834,
            "type" : "SCALAR"
        }
    ],
    "bufferViews" : [
        {
            "buffer" : 0,
            "byteLength" : 26184,
            "byteOffset" : 0
        },
        {
            "buffer" : 0,
            "byteLength" : 26184,
            "byteOffset" : 26184
        },
        {
            "buffer" : 0,
            "byteLength" : 17456,
            "byteOffset" : 52368
        },
        {
            "buffer" : 0,
            "byteLength" : 5808,
            "byteOffset" : 69824
        },
        {
            "buffer" : 0,
            "byteLength" : 35890,
            "byteOffset" : 75632
        },
        {
            "buffer" : 0,
            "byteLength" : 126924,
            "byteOffset" : 111524
        },
        {
            "buffer" : 0,
            "byteLength" : 126924,
            "byteOffset" : 238448
        },
        {
            "buffer" : 0,
            "byteLength" : 25668,
            "byteOffset" : 365372
        }
    ],
    "samplers" : [
        {
            "magFilter" : 9729,
            "minFilter" : 9987
        }
    ],
    "buffers" : [
        {
            "byteLength" : 391040,
            "uri" : "data:application/octet-stream;base64,"
        }
    ]
}
